<svg id="Calque_1" data-name="Calque 1" xmlns="http://www.w3.org/2000/svg" viewBox="0 0 171.22 153.67"><defs><style>.cls-1{fill:#2c3b8e;}.cls-2{fill:#ba9658;}.cls-3{fill:#ed433d;}.cls-4{fill:#2f3490;}.cls-5{fill:#eb212e;}.cls-6{fill:#0038b7;}.cls-7{fill:#8a5e2e;}.cls-8{font-size:14.87px;fill:#ec1d29;font-family:DINAlternate-Bold, DIN Alternate;font-weight:700;}</style></defs><title>logo</title><path class="cls-1" d="M139.65,95.89c-.25,3.14-.45,6.3-.76,9.44-.19,1.9-1.37,2.72-3.28,2.82-2.47.14-3.65,1.86-2.83,4,1.61,4.21,3.33,8.38,4.86,12.62a14.67,14.67,0,0,1,.67,4.18A26.37,26.37,0,0,1,133.1,146c-4,5.56-14.34,8.36-20.28,5.23a2.84,2.84,0,0,1-1.16-2.16c.06-3.29,1.38-6.55-.7-9.85-.48-.77.88-2.83,1.61-4.18.33-.62,1.17-1,1.8-1.43,5.67-4.11,4.84-4.09,3.14-10.62-1.06-4.09-2.79-8-4-12a7,7,0,0,1,0-3.81c1.12-3.78,2.53-7.48,3.72-11.24,1.69-5.37,5.26-8.48,10.82-9.21,2.27-.3,4.67-.9,6.83-.45,3.69.77,4.6,2.46,4.6,6.42v3.19Z" transform="translate(-9.88 -26.29)"/><path class="cls-2" d="M106.34,143.24c-.56,3.2-1,5.71-1.46,8.3H76.82c-10.14-23-8.41-46.66-5.68-70.6,2,.26,3,.5,4,.52q17.19.32,34.38.59c2.25,0,3.84,1.85,3.92,5.12a3.31,3.31,0,0,1-3.34,3.51c-6.5.35-11.55,3.49-16.2,7.75A56.16,56.16,0,0,0,81.57,115.1a31.2,31.2,0,0,0-2.82,21c1,4.52,4.57,6.9,8.42,8.57,5.54,2.4,11.17,1.37,16.67-.53Z" transform="translate(-9.88 -26.29)"/><path class="cls-3" d="M84.32,165.76c-4.4.85-5.42.44-7-3-3.28-7-6.55-13.91-8.32-21.45-.79-3.35-1.87-6.63-3.07-10.8-1.81,6.72-3,12.72-5.07,18.36-2.27,6.07-5.37,11.85-8.3,17.66a4.35,4.35,0,0,1-3,1.82c-1.6.23-2.23-1-1.45-2.33,6.51-10.86,9.39-23,12-35.15,1.33-6.26,1.06-12.88,1.23-19.35.13-4.72-.34-9.47-.26-14.2a64.55,64.55,0,0,0-2.78-19.85c-2-6.67-3.19-13.57-4.89-20.34-.59-2.36-1.77-4.58-2.39-7a8,8,0,0,1,.35-4.14c5.19,4.53,7.06,10.63,9.08,16.67s4.17,11.94,6.32,18.09c.61-2.68,1.15-5.32,1.8-7.93,2.28-9,6.24-17.35,10.48-25.56.3-.57,1.43-.7,2.17-1,.31.88,1.06,1.89.86,2.63-2.12,7.71-4.41,15.38-6.6,23.08C74.57,75.1,74,78.27,73,81.28c-3.33,9.59-1.84,19.52-2.3,29.31-.12,2.6.16,5.25-.2,7.82-1,7.28,1.68,13.9,3.5,20.64C76.47,148.21,79.17,157.31,84.32,165.76Z" transform="translate(-9.88 -26.29)"/><path class="cls-4" d="M155,107.55c-2.78,0-5.09,0-7.41,0-3-.06-4.18-1.24-4.19-4.14,0-3.57,0-7.15,0-10.73,0-2.21.94-3.1,3.13-3.09q16.08.06,32.18,0c1.71,0,2.45.56,2.41,2.35-.08,4.25,0,8.5,0,12.75,0,2.09-1,2.93-3,2.89-2.51-.06-5,0-8,0v3.13c0,11.69-.05,23.38,0,35.08,0,2.22-.54,3.17-2.92,3a79.64,79.64,0,0,0-9.27,0c-2.37.14-3-.78-2.94-3,.09-12,0-24,0-36Z" transform="translate(-9.88 -26.29)"/><path class="cls-5" d="M27.73,167.32c-5,0-10-.06-15.07,0-1.92,0-2.79-.47-2.77-2.59q.13-14.2,0-28.4c0-2.32,1-2.71,3-2.7,10,.08,19.9,0,29.85,0,2.76,0,3.86,1.25,3.72,4-.22,4.3-.45,8.61-.53,12.91q-.14,7.09,0,14.2c0,1.88-.63,2.57-2.52,2.54C38.16,167.26,32.94,167.32,27.73,167.32Z" transform="translate(-9.88 -26.29)"/><path class="cls-2" d="M55.82,150.23l-3.89-.38c-.1-.8-.25-1.53-.27-2.26-.25-13.5-.47-27-.74-40.49-.14-7.41-.4-14.81-.56-22.22-.06-2.74,1.06-3.84,3.84-4a5.88,5.88,0,0,1,6.25,4.64,36.73,36.73,0,0,1,.84,7.15c-.08,11.68.24,23.4-.69,35C60,135.27,57.48,142.69,55.82,150.23Z" transform="translate(-9.88 -26.29)"/><path class="cls-2" d="M110.88,113h3.91c.35,1.67.72,3.45,1,5-5.43,0-10.4-.11-15.36.05-2.34.07-3.53-.85-2.84-3,1.11-3.44,2.2-7,4.15-10,2.29-3.52,5.49-6.46,8.29-9.66.13-.14.27-.27.41-.41,1.42-1.39,3.15-2.88,4.9-1.18a5.23,5.23,0,0,1,1.18,4.46C114.94,103.17,112.86,108,110.88,113Z" transform="translate(-9.88 -26.29)"/><path class="cls-6" d="M37.76,130.18c-2,0-4.07-.11-6.09,0s-2.68-.78-2.62-2.74c.1-3.86,0-7.73,0-11.6,0-3,.95-3.43,4.06-3.17a74.6,74.6,0,0,0,10.14,0c2-.11,3.12.46,3.14,2.49,0,4.16,0,8.32,0,12.48,0,1.66-.64,2.68-2.59,2.55S39.79,130.18,37.76,130.18Z" transform="translate(-9.88 -26.29)"/><path class="cls-7" d="M92.87,164.73c0,4.53.17,8.66-.14,12.75-.06.87-1.81,2.23-2.86,2.3-3.93.27-7.89.17-11.83.09-2.85-.05-2.05-2.43-2.22-4-.26-2.32,0-4.7-.32-7-.35-2.83.55-4.13,3.35-4.13Z" transform="translate(-9.88 -26.29)"/><path class="cls-2" d="M105.44,126.53c3.33.26,6.66.46,10,.84.83.09,2.15.68,2.24,1.21a3.52,3.52,0,0,1-1,2.6c-2.44,2.36-5,4.55-7.54,6.84-3.15,2.87-9,1.59-10.51-2.44a19.75,19.75,0,0,1-1.44-6.22c0-.85,1.51-2.28,2.54-2.51,1.84-.41,3.83-.11,5.75-.11Z" transform="translate(-9.88 -26.29)"/><path class="cls-5" d="M59.25,47.32a7.47,7.47,0,0,1,7.21-7c3.78,0,7.52,3.74,7.22,7.63-.35,4.34-3.42,6.67-7.39,6.76A7.18,7.18,0,0,1,59.25,47.32Z" transform="translate(-9.88 -26.29)"/><path class="cls-5" d="M82.06,40.72c-2.88-3.09-5.4-6.67-8.74-9.15C69.57,28.78,64.79,28,60.5,30.45c-3.79,2.17-7.11,5.15-10,7.31,1.35-7.61,10.08-12.47,17.46-11.3C76.46,27.81,83.22,35,82.06,40.72Z" transform="translate(-9.88 -26.29)"/><path class="cls-2" d="M71.28,147.51H61c1.59-5.75,3.15-11.35,4.93-17.79C67.84,136.08,69.52,141.65,71.28,147.51Z" transform="translate(-9.88 -26.29)"/><path class="cls-5" d="M79.21,42.93c-2.14-2.48-3.86-5.32-6.33-7.17a11.61,11.61,0,0,0-14.27-.33c-1.85,1.25-3.12,3.33-4.68,5a14.33,14.33,0,0,1-1.42,1.15c1.88-7.89,8.29-11.44,15.81-10.53C73.81,31.73,79.78,38.58,79.21,42.93Z" transform="translate(-9.88 -26.29)"/><path class="cls-5" d="M77.31,46.05c-2.86-3.91-6.16-7.31-11.13-7.77C61,37.8,58,41.71,54.7,44.87c.29-4.51,5.27-9.19,9.75-9.24C70.55,35.55,77.08,40.65,77.31,46.05Z" transform="translate(-9.88 -26.29)"/><text class="cls-8" transform="translate(114.21 140.26)">NIGER</text></svg>